<?xml version="1.0" standalone="no"?>
<!DOCTYPE svg PUBLIC "-//W3C//DTD SVG 20010904//EN"
        "http://www.w3.org/TR/2001/REC-SVG-20010904/DTD/svg10.dtd">
<svg version="1.0" xmlns="http://www.w3.org/2000/svg"
     width="152.000000pt" height="124.000000pt" viewBox="0 0 152.000000 124.000000"
     preserveAspectRatio="xMidYMid meet">

    <g transform="translate(0.000000,124.000000) scale(0.100000,-0.100000)"
       fill="#000000" stroke="none">
        <path d="M652 997 c-15 -16 -22 -36 -22 -65 l0 -42 45 0 45 0 0 -65 0 -65 -45
0 -45 0 0 -70 0 -70 45 0 45 0 0 -65 0 -65 -45 0 -45 0 0 -124 c0 -180 -34
-166 404 -166 260 1 355 4 367 13 37 28 39 49 39 397 0 358 -3 388 -45 404 -9
3 -175 6 -369 6 l-353 0 -21 -23z m578 -99 c81 -41 99 -119 100 -425 l0 -183
-44 0 -45 0 -3 238 c-4 263 -7 280 -66 308 -45 21 -141 14 -212 -17 l-50 -21
0 -254 0 -254 -40 0 -40 0 0 310 0 310 40 0 c34 0 40 -3 40 -21 0 -16 4 -19
18 -14 118 52 228 60 302 23z"/>
        <path d="M460 890 l0 -50 55 0 55 0 0 50 0 50 -55 0 -55 0 0 -50z"/>
        <path d="M170 865 c0 -33 2 -35 35 -35 33 0 35 2 35 35 0 33 -2 35 -35 35 -33
0 -35 -2 -35 -35z"/>
        <path d="M300 765 l0 -65 70 0 70 0 0 65 0 65 -70 0 -70 0 0 -65z"/>
        <path d="M10 765 c0 -34 1 -35 40 -35 39 0 40 1 40 35 0 34 -1 35 -40 35 -39
0 -40 -1 -40 -35z"/>
        <path d="M190 670 l0 -40 40 0 40 0 0 40 0 40 -40 0 -40 0 0 -40z"/>
        <path d="M440 626 l0 -65 -52 -3 -53 -3 0 -50 0 -50 53 -3 52 -3 0 55 0 56 70
0 70 0 0 65 0 65 -70 0 -70 0 0 -64z"/>
        <path d="M460 380 l0 -50 55 0 55 0 0 50 0 50 -55 0 -55 0 0 -50z"/>
    </g>
</svg>
